HIERARCHY
ROOT Hips
{
  OFFSET 0.125498 102.449 1.30395
  CHANNELS 6 Xposition Yposition Zposition Zrotation Xrotation Yrotation
  JOINT Spine
  {
    OFFSET 0 10.1816 0.1315
    CHANNELS 3 Zrotation Xrotation Yrotation
    JOINT Spine1
    {
      OFFSET 0 10.0835 -1.0008
      CHANNELS 3 Zrotation Xrotation Yrotation
      JOINT Spine2
      {
        OFFSET 0 9.1 -1.3734
        CHANNELS 3 Zrotation Xrotation Yrotation
        JOINT Neck
        {
          OFFSET 0 16.6717 -2.5162
          CHANNELS 3 Zrotation Xrotation Yrotation
          JOINT Head
          {
            OFFSET 0 9.6179 1.685
            CHANNELS 3 Zrotation Xrotation Yrotation
            End Site
            {
              OFFSET 0 0 0
            }
          }
        }
        JOINT LeftShoulder
        {
          OFFSET 4.5704 10.946 -2.628
          CHANNELS 3 Zrotation Xrotation Yrotation
          JOINT LeftArm
          {
            OFFSET 10.5924 -0.5246 -2.2321
            CHANNELS 3 Zrotation Xrotation Yrotation
            JOINT LeftForeArm
            {
              OFFSET 27.8415 -0.0001 0
              CHANNELS 3 Zrotation Xrotation Yrotation
              JOINT LeftHand
              {
                OFFSET 28.3288 0 0
                CHANNELS 3 Zrotation Xrotation Yrotation
                End Site
                {
                  OFFSET 0 0 0
                }
              }
            }
          }
        }
        JOINT RightShoulder
        {
          OFFSET -4.57 10.9462 -2.628
          CHANNELS 3 Zrotation Xrotation Yrotation
          JOINT RightArm
          {
            OFFSET -10.5928 -0.5248 -2.2321
            CHANNELS 3 Zrotation Xrotation Yrotation
            JOINT RightForeArm
            {
              OFFSET -27.8415 0 0
              CHANNELS 3 Zrotation Xrotation Yrotation
              JOINT RightHand
              {
                OFFSET -28.3288 0 0.0001
                CHANNELS 3 Zrotation Xrotation Yrotation
                End Site
                {
                  OFFSET 0 0 0
                }
              }
            }
          }
        }
      }
    }
  }
  JOINT LeftUpLeg
  {
    OFFSET 8.2078 -6.7517 -1.5996
    CHANNELS 3 Zrotation Xrotation Yrotation
    JOINT LeftLeg
    {
      OFFSET 0 -44.3705 0.2846
      CHANNELS 3 Zrotation Xrotation Yrotation
      JOINT LeftFoot
      {
        OFFSET 0 -44.4279 -2.9822
        CHANNELS 3 Zrotation Xrotation Yrotation
        JOINT LeftToeBase
        {
          OFFSET 0 -8.7287 10.7106
          CHANNELS 3 Zrotation Xrotation Yrotation
          End Site
          {
            OFFSET 0 0 0
          }
        }
      }
    }
  }
  JOINT RightUpLeg
  {
    OFFSET -8.2078 -6.7517 -1.5996
    CHANNELS 3 Zrotation Xrotation Yrotation
    JOINT RightLeg
    {
      OFFSET 0 -44.3705 0.2862
      CHANNELS 3 Zrotation Xrotation Yrotation
      JOINT RightFoot
      {
        OFFSET 0 -44.4277 -2.9838
        CHANNELS 3 Zrotation Xrotation Yrotation
        JOINT RightToeBase
        {
          OFFSET 0 -8.7287 10.7106
          CHANNELS 3 Zrotation Xrotation Yrotation
          End Site
          {
            OFFSET 0 0 0
          }
        }
      }
    }
  }
}
MOTION
Frames:	16
Frame Time:	0.0333333
0.125498 102.449 1.30395 -1.99623 -4.40949 2.76691 0.697917 6.32669 2.13708 0.173311 0.586315 0.626802 0.171085 0.588479 0.620594 0.60472 -1.35068 0.210797 -4.34969 -2.14096 5.22178 -19.1226 1.6061 -2.75036 -60.9482 8.02675 -3.82979 -0.000232141 7.87921e-07 -6.44077 -0.597041 -1.35141 0.982261 17.3001 1.00371 0.682188 56.0493 7.49667 5.88994 1.27944e-05 8.17009e-07 13.1042 -1.66793 8.07778 5.40136 1.79273 -26.2015 5.92893 -2.43359 60.799 1.96013 0.836932 3.32168 -0.0630455 -2.66365e-06 -2.29772 7.3487e-07 -4.03452 -3.8539 -11.4374 1.62311 17.1827 3.6352 1.84887 -8.1102 0.0522647 2.22864e-07 -0.363928 -2.0125e-06 
-0.0576257 102.559 5.64309 -1.42164 -3.78534 2.88962 -0.232625 6.13531 3.71385 0.0101457 0.595341 1.04047 0.00528165 0.597952 1.03529 0.60473 -1.38149 0.109195 -4.20509 -2.43992 4.71729 -18.8062 1.38411 -1.94964 -62.2796 8.48525 -0.585803 -0.000198645 -2.54099e-07 -7.07924 -1.39732 -0.523222 1.46496 17.1755 1.16887 1.39368 54.3633 8.6391 8.71928 -2.48304e-06 8.36129e-06 15.4582 -1.18501 4.51133 6.62542 1.08084 -29.5221 5.64656 -2.51084 52.22 3.78628 0.952343 2.00446 -0.0684181 -1.37092e-06 -1.59248 4.54314e-06 -4.15145 -1.4498 -11.6188 1.41229 16.681 3.73556 0.818912 -10.3204 0.0644509 -9.53405e-08 -0.550283 -2.63849e-06 
-0.119132 102.363 9.91873 -0.70076 -3.01964 3.44377 -1.2953 5.8543 4.85645 -0.162074 0.577748 1.3425 -0.168727 0.579281 1.33873 0.598426 -1.41586 0.0154195 -3.94878 -2.76216 4.11526 -18.6984 1.23124 -1.36719 -63.1778 8.53844 2.99757 -0.000193493 -1.13305e-06 -7.8095 -1.52846 -0.654171 1.35794 17.2992 1.28509 1.85444 52.0197 9.77377 11.3472 -1.01087e-05 -1.09206e-06 18.2743 -1.71943 1.91362 7.3027 -0.0904929 -31.1806 4.52281 -1.74714 40.4399 6.30243 1.12799 2.17671 -0.0904952 -2.32322e-06 -0.627191 5.60571e-06 -4.45015 0.883807 -11.8642 1.15563 16.1504 3.37836 0.213295 -12.9716 0.0558088 -1.70783e-06 -0.520477 -2.13175e-06 
-0.0522198 101.929 14.2124 -0.0662584 -2.48398 4.33698 -2.27211 5.6988 5.69889 -0.278062 0.626532 1.57445 -0.28711 0.627081 1.57069 0.567032 -1.45351 -0.0901958 -3.67547 -3.41135 3.12083 -18.8518 1.13188 -0.949285 -63.7608 8.12988 6.25594 -0.000201602 -4.6425e-07 -8.16497 -0.362713 -0.905189 0.942724 17.491 1.30321 1.89009 49.4425 10.0776 14.2946 -1.06235e-05 -2.51043e-06 20.5329 -2.97369 0.472164 7.4643 -1.31286 -30.1048 3.30878 -0.800262 24.5129 8.73101 1.22439 4.5854 -0.132988 8.61269e-07 -0.41291 4.32339e-06 -4.87405 3.65929 -12.45 1.28599 15.5151 2.82773 -0.0489233 -15.7299 0.0488226 4.15617e-08 -0.792249 6.09427e-07 
0.116369 99.7911 19.1911 -0.0933995 -2.12352 5.33597 -2.62451 4.60665 6.24519 -0.21596 1.09539 1.73764 -0.214303 1.09481 1.73581 0.536177 -1.51022 -0.175334 -3.59352 -3.93059 2.2626 -18.9309 1.01824 -0.490749 -64.2386 6.64202 9.09234 -0.000211189 2.07853e-06 -7.751 1.4953 0.0272143 0.887973 17.6302 1.26604 1.70856 47.2362 9.50404 17.1134 5.41353e-06 -7.17485e-07 21.8719 -4.12088 0.101015 7.71812 -1.52488 -32.0158 3.14564 -0.229004 15.9905 8.77023 0.0266924 2.7436 0.913252 4.02115e-06 0.914463 9.69329e-06 -5.54335 3.53688 -12.8662 1.6302 22.4724 2.17655 0.328435 -22.2474 0.0760622 3.92387e-07 -1.7041 -4.5157e-06 
0.53202 97.8851 24.4602 -0.803357 -1.86785 6.14477 -2.25866 3.47239 6.67997 -0.121507 1.44646 1.85941 -0.107438 1.44618 1.85858 0.560165 -1.57568 -0.240005 -3.54936 -3.9074 1.798 -18.5862 0.862778 0.0763959 -64.6486 3.85271 11.5108 -0.000202606 -1.05134e-06 -6.27697 1.35573 1.11723 1.50974 17.7989 1.25139 1.61506 45.7735 8.28493 19.1045 -8.60328e-06 6.73131e-06 22.5039 -4.84569 0.268067 8.14417 -0.955348 -36.935 3.46986 0.371002 15.8775 7.82863 -4.58884 -3.54706 1.87512 2.41611e-06 1.30726 -5.34254e-06 -5.18602 5.6 -12.9988 1.76772 25.1878 2.23001 2.6062 -25.1698 0.444163 2.89068e-08 -3.69912 1.62878e-06 
1.20894 96.9993 29.3785 -1.26813 -1.71521 6.60809 -2.04303 3.32523 7.26895 -0.123813 1.30155 2.01832 -0.111006 1.30185 2.01739 0.617349 -1.61921 -0.30717 -3.48947 -3.71943 1.5438 -18.1515 0.728323 0.564326 -64.787 1.11259 13.6393 -0.000218205 -1.12141e-06 -4.57399 1.13473 3.27403 2.49766 18.1049 1.26746 1.62054 45.0973 6.65123 20.1311 4.75259e-06 -2.04399e-06 22.5998 -5.50779 0.150052 8.27741 -1.9163 -39.5123 1.91584 2.0181 15.9799 6.68412 -8.87659 -8.30714 3.24875 3.30203e-06 1.00135 3.82776e-06 -5.06612 9.46262 -13.4242 2.03421 23.4928 3.47129 4.8942 -23.8184 0.721472 1.68023e-06 -8.61071 -1.09946e-06 
2.10431 96.3493 34.3151 -1.33128 -1.60324 6.76887 -2.16806 3.44485 7.8773 -0.143968 1.14652 2.18896 -0.128931 1.14596 2.1889 0.661629 -1.72121 -0.338455 -3.58038 -4.00991 1.60367 -18.0575 0.600495 1.07297 -64.6016 -0.918994 15.2914 -0.000219596 -3.23631e-06 -3.44795 0.934701 6.62077 4.2383 18.2845 1.29761 1.70647 45.1736 5.09624 20.3193 -2.58795e-06 4.15919e-06 22.5435 -6.15716 -0.393256 7.95134 -2.56851 -38.5369 1.60006 1.72328 15.719 6.27774 -8.04104 -7.96331 4.85706 3.12512e-06 0.116337 -2.95803e-06 -5.42827 13.3519 -14.0212 2.18414 21.5626 5.39623 5.31765 -20.8388 0.518926 1.64947e-06 -14.9231 8.42754e-07 
3.17112 95.9604 39.646 -1.01442 -1.83496 6.80033 -2.71539 3.80957 8.51409 -0.201269 0.998506 2.37104 -0.191155 0.997425 2.37048 0.714058 -1.86146 -0.343631 -3.46973 -4.5043 1.75453 -18.1045 0.508105 1.45217 -64.7044 -1.46007 16.3937 -0.000210973 6.85817e-06 -3.37766 0.340351 11.2551 5.66422 18.2956 1.27646 1.6187 45.6522 4.19244 19.6964 -6.40107e-06 -3.57216e-06 22.6149 -6.75875 -0.983838 7.75948 -2.64495 -37.1321 3.14218 -0.804712 18.5275 5.6667 0.19296 -3.15784 3.02137 8.98697e-07 -2.50896 8.92511e-06 -5.51963 18.2217 -14.3129 1.3171 18.017 6.88932 6.5563 -14.9561 0.232034 1.71504e-06 -21.9834 2.48277e-07 
4.42728 96.1841 45.1597 -0.33176 -2.41596 6.65064 -3.56032 4.41832 9.35469 -0.318172 0.722539 2.61842 -0.316354 0.72207 2.61663 0.697105 -1.94046 -0.359714 -3.15897 -4.1957 1.72938 -18.246 0.546463 1.30937 -64.9278 -0.641124 17.5583 -0.000204121 -2.11173e-07 -4.08624 -1.35654 13.6117 6.32376 18.3163 1.15124 1.11055 46.4309 4.26494 18.1411 3.69638e-07 -5.83537e-06 22.3874 -6.98938 -1.12325 8.22324 -4.12196 -33.6527 2.65412 -1.36205 18.3444 5.87704 5.49373 3.77889 0.400726 -2.29407e-06 -4.40931 3.57866e-06 -5.81502 23.056 -14.3744 -0.289409 13.6036 7.39972 9.45667 -3.38081 -0.226816 1.31889e-06 -31.1757 -1.57723e-06 
5.84293 96.7115 50.4168 0.193611 -2.60574 6.67019 -3.99748 4.85671 9.68261 -0.431605 0.299758 2.72332 -0.433678 0.300235 2.7226 0.632232 -2.0348 -0.324846 -3.19864 -3.23204 2.17455 -18.425 0.568984 1.23464 -64.8086 0.171728 18.3431 -0.000195379 -7.98554e-06 -4.75272 -3.47325 12.1439 6.88073 18.2954 0.990801 0.467065 47.9352 4.91028 15.9684 -2.25159e-05 -6.36625e-06 21.6438 -6.41636 -0.471108 8.66545 -5.68011 -30.2323 1.43536 -0.938511 17.6346 6.39728 7.54404 9.05609 0.606739 7.0481e-07 -3.70131 -7.59561e-06 -6.96145 23.2797 -13.497 -2.09434 15.1112 7.15028 14.8267 12.1622 -2.21741 -1.43062 -42.7281 -0.824003 
7.2076 96.7514 55.5915 0.435945 -2.41604 7.58068 -3.98482 4.82391 8.94431 -0.493532 0.13251 2.5146 -0.492813 0.130023 2.51714 0.663253 -2.17516 -0.214327 -3.49444 -2.94163 3.27074 -18.4042 0.536688 1.36338 -64.7539 0.872778 17.2089 -0.000196684 -8.09638e-06 -5.03558 -3.54078 10.3945 6.36626 18.3572 0.932243 0.220472 50.0288 5.11683 13.7147 -1.54557e-05 -5.61764e-06 20.7106 -5.62733 0.205597 8.86282 -6.142 -29.6819 1.57855 -1.89295 22.4135 7.42166 9.55386 7.49927 0.247156 -1.54871e-06 -3.14217 6.59048e-06 -7.88687 17.1899 -11.4928 -4.27523 28.4878 5.73543 13.8042 19.234 -2.80046 4.43877 -37.8768 2.19532 
8.48253 97.1261 60.3807 0.714484 -2.67398 9.38637 -3.8631 5.26499 7.70152 -0.502303 0.164552 2.16406 -0.502727 0.160563 2.16754 0.713731 -2.21387 -0.0849931 -3.79419 -3.31709 4.29945 -18.6854 0.667323 0.868109 -64.6226 1.75035 14.3813 -0.000197525 2.33497e-06 -4.72479 -4.33629 5.94296 5.84538 18.5308 0.893966 0.04024 51.9356 4.9577 11.3598 4.6135e-06 -8.09215e-06 19.5628 -5.03913 0.202395 8.96537 -7.12722 -28.2931 1.06789 -2.22775 26.5717 7.87634 9.8724 4.00295 -0.401241 6.50825e-07 -3.30104 -9.85082e-07 -8.08582 10.7757 -9.76611 -5.83669 40.7966 4.83993 12.547 21.7768 -2.71103 8.55307 -19.8169 1.49587 
9.649 97.9551 64.8941 0.990495 -3.33819 11.4512 -3.68413 5.83878 6.45408 -0.39036 0.241758 1.79824 -0.39214 0.239687 1.80002 0.690027 -2.07013 0.0556346 -4.00351 -3.24669 5.18415 -19.305 0.882711 0.091606 -63.8663 2.44859 10.4978 -0.000209693 -2.83292e-06 -4.53255 -5.33662 2.38997 6.12931 18.7051 0.786285 -0.414582 53.5976 4.67836 8.6912 1.89922e-05 2.48147e-06 17.9793 -4.20985 0.378647 8.79233 -8.27054 -25.044 0.372301 -1.70165 28.0358 7.47352 9.63565 0.405799 -0.855588 8.94658e-07 -3.48642 1.678e-08 -7.68814 4.3003 -8.34767 -6.76732 50.407 4.51117 11.0179 15.8961 -1.78117 3.5173 -1.76049 -0.0172651 
10.7569 99.0678 69.3572 0.689067 -3.99861 13.8403 -2.88645 6.1254 4.82569 -0.199785 0.314056 1.32279 -0.202058 0.314439 1.32168 0.638291 -1.87577 0.223837 -4.00508 -2.61962 6.21445 -19.3605 1.01645 -0.418468 -63.1129 3.25436 5.82056 -0.000219253 1.12929e-06 -5.23841 -1.35571 5.94293 5.04119 18.7815 0.655765 -0.945036 55.7305 3.73979 5.93061 1.05479e-05 1.32115e-06 15.9693 -3.43215 1.89922 8.29001 -8.55692 -20.8107 0.408853 -0.756374 27.3955 5.15766 9.45783 -2.14191 -0.786988 -3.5567e-06 -3.70447 1.72316e-07 -6.38329 -1.92249 -7.42761 -6.48731 55.8716 3.67742 9.14788 9.96569 -0.989375 -2.30558e-06 -0.439805 -8.68426e-08 
11.8953 100.2 73.8945 0.122248 -4.45535 16.6078 -1.82773 6.09247 2.80839 -0.0202105 0.365541 0.754335 -0.0218472 0.366703 0.751418 0.627106 -1.7282 0.39712 -3.89125 -1.91914 7.27988 -19.168 1.12054 -0.850292 -62.2874 4.98502 1.40542 -0.000201053 -2.58063e-07 -6.56983 0.888822 3.99005 1.70021 18.7956 0.508021 -1.53677 57.9844 2.53846 2.92915 1.33364e-05 1.71696e-06 14.0806 -2.68021 4.44417 7.40245 -8.31933 -16.3499 0.863791 0.290833 25.7484 1.79089 9.40891 -4.05892 -0.654154 3.54652e-07 -3.86288 -9.97349e-07 -5.18488 -7.657 -7.18608 -4.9675 57.4998 2.56205 8.65194 6.17376 -0.671172 1.74535e-06 -0.785564 -2.92654e-07 
